<mxfile host="65bd71144e">
    <diagram id="JIifrSgesUnfxdTuCoRn" name="Page-1">
        <mxGraphModel dx="1751" dy="739" grid="1" gridSize="10" guides="1" tooltips="1" connect="1" arrows="1" fold="1" page="1" pageScale="1" pageWidth="850" pageHeight="1100" math="0" shadow="0">
            <root>
                <mxCell id="0"/>
                <mxCell id="1" parent="0"/>
                <mxCell id="2" value="" style="whiteSpace=wrap;html=1;fontSize=23;fillColor=#f5f5f5;fontColor=#333333;strokeColor=#666666;" parent="1" vertex="1">
                    <mxGeometry x="160" y="170" width="620" height="420" as="geometry"/>
                </mxCell>
                <mxCell id="3" value="" style="points=[];aspect=fixed;html=1;align=center;shadow=0;dashed=0;image;image=img/lib/allied_telesis/computer_and_terminals/Server_Desktop.svg;" parent="1" vertex="1">
                    <mxGeometry x="139.56" y="130" width="110.44" height="140" as="geometry"/>
                </mxCell>
                <mxCell id="4" value="&lt;div style=&quot;text-align: left&quot;&gt;&lt;/div&gt;&lt;font style=&quot;font-size: 23px&quot;&gt;&lt;b style=&quot;background-color: rgb(0 , 0 , 0)&quot;&gt;&lt;font color=&quot;#ffffff&quot;&gt;LINUX HOST&lt;/font&gt;&lt;/b&gt;&lt;br&gt;&lt;/font&gt;" style="text;html=1;resizable=0;autosize=1;align=center;verticalAlign=middle;points=[];fillColor=none;strokeColor=none;rounded=0;" parent="1" vertex="1">
                    <mxGeometry x="634" y="173" width="150" height="20" as="geometry"/>
                </mxCell>
                <mxCell id="5" style="edgeStyle=orthogonalEdgeStyle;html=1;fontSize=16;fontColor=#FF3333;strokeWidth=2;endArrow=none;endFill=0;" parent="1" source="6" target="13" edge="1">
                    <mxGeometry relative="1" as="geometry"/>
                </mxCell>
                <mxCell id="6" value="&lt;font style=&quot;font-size: 16px&quot;&gt;&lt;br&gt;&lt;/font&gt;" style="sketch=0;outlineConnect=0;strokeColor=#6c8ebf;fillColor=#dae8fc;dashed=0;verticalLabelPosition=bottom;verticalAlign=top;align=center;html=1;fontSize=12;fontStyle=0;aspect=fixed;shape=mxgraph.aws4.resourceIcon;resIcon=mxgraph.aws4.container_1;" parent="1" vertex="1">
                    <mxGeometry x="270" y="250" width="100" height="100" as="geometry"/>
                </mxCell>
                <mxCell id="7" style="edgeStyle=orthogonalEdgeStyle;html=1;entryX=0.5;entryY=0;entryDx=0;entryDy=0;fontSize=16;fontColor=#FF3333;strokeWidth=2;endArrow=none;endFill=0;" parent="1" source="8" target="14" edge="1">
                    <mxGeometry relative="1" as="geometry">
                        <Array as="points">
                            <mxPoint x="500" y="440"/>
                            <mxPoint x="325" y="440"/>
                        </Array>
                    </mxGeometry>
                </mxCell>
                <mxCell id="8" value="&lt;font style=&quot;font-size: 16px&quot;&gt;&lt;br&gt;&lt;/font&gt;" style="sketch=0;outlineConnect=0;strokeColor=#6c8ebf;fillColor=#dae8fc;dashed=0;verticalLabelPosition=bottom;verticalAlign=top;align=center;html=1;fontSize=12;fontStyle=0;aspect=fixed;shape=mxgraph.aws4.resourceIcon;resIcon=mxgraph.aws4.container_1;" parent="1" vertex="1">
                    <mxGeometry x="450" y="250" width="100" height="100" as="geometry"/>
                </mxCell>
                <mxCell id="9" style="edgeStyle=orthogonalEdgeStyle;html=1;fontSize=16;fontColor=#FF3333;strokeWidth=2;endArrow=none;endFill=0;" parent="1" source="10" edge="1">
                    <mxGeometry relative="1" as="geometry">
                        <mxPoint x="370" y="490" as="targetPoint"/>
                        <Array as="points">
                            <mxPoint x="690" y="460"/>
                            <mxPoint x="370" y="460"/>
                        </Array>
                    </mxGeometry>
                </mxCell>
                <mxCell id="10" value="&lt;font style=&quot;font-size: 16px&quot;&gt;&lt;br&gt;&lt;/font&gt;" style="sketch=0;outlineConnect=0;strokeColor=#6c8ebf;fillColor=#dae8fc;dashed=0;verticalLabelPosition=bottom;verticalAlign=top;align=center;html=1;fontSize=12;fontStyle=0;aspect=fixed;shape=mxgraph.aws4.resourceIcon;resIcon=mxgraph.aws4.container_1;" parent="1" vertex="1">
                    <mxGeometry x="640" y="250" width="100" height="100" as="geometry"/>
                </mxCell>
                <mxCell id="11" value="" style="group" parent="1" vertex="1" connectable="0">
                    <mxGeometry x="250" y="490" width="150" height="120" as="geometry"/>
                </mxCell>
                <mxCell id="12" value="&lt;b&gt;&lt;font style=&quot;font-size: 16px&quot; color=&quot;#ffffff&quot;&gt;eth0&lt;/font&gt;&lt;/b&gt;" style="whiteSpace=wrap;html=1;labelBackgroundColor=#000000;fillColor=#f0a30a;strokeColor=#BD7000;fontColor=#000000;" parent="11" vertex="1">
                    <mxGeometry y="60" width="150" height="60" as="geometry"/>
                </mxCell>
                <mxCell id="13" value="&lt;b&gt;&lt;font style=&quot;font-size: 16px&quot; color=&quot;#ffffff&quot;&gt;mac0&lt;/font&gt;&lt;/b&gt;" style="whiteSpace=wrap;html=1;labelBackgroundColor=#000000;fillColor=#f0a30a;strokeColor=#BD7000;fontColor=#000000;" parent="11" vertex="1">
                    <mxGeometry width="50" height="60" as="geometry"/>
                </mxCell>
                <mxCell id="14" value="&lt;b&gt;&lt;font style=&quot;font-size: 16px&quot; color=&quot;#ffffff&quot;&gt;mac1&lt;/font&gt;&lt;/b&gt;" style="whiteSpace=wrap;html=1;labelBackgroundColor=#000000;fillColor=#f0a30a;strokeColor=#BD7000;fontColor=#000000;" parent="11" vertex="1">
                    <mxGeometry x="50" width="50" height="60" as="geometry"/>
                </mxCell>
                <mxCell id="15" value="&lt;b&gt;&lt;font style=&quot;font-size: 16px&quot; color=&quot;#ffffff&quot;&gt;mac2&lt;/font&gt;&lt;/b&gt;" style="whiteSpace=wrap;html=1;labelBackgroundColor=#000000;fillColor=#f0a30a;strokeColor=#BD7000;fontColor=#000000;" parent="11" vertex="1">
                    <mxGeometry x="100" width="50" height="60" as="geometry"/>
                </mxCell>
                <mxCell id="16" value="&lt;span style=&quot;color: rgb(0 , 0 , 0)&quot;&gt;IP: 192.168.1.10&lt;/span&gt;&lt;br style=&quot;color: rgb(0 , 0 , 0)&quot;&gt;&lt;span style=&quot;color: rgb(0 , 0 , 0)&quot;&gt;MAC: &lt;/span&gt;&lt;font color=&quot;#ff3333&quot;&gt;00:00:00:00:01:10&lt;/font&gt;" style="text;html=1;resizable=0;autosize=1;align=left;verticalAlign=middle;points=[];fillColor=none;strokeColor=none;rounded=0;labelBackgroundColor=none;fontSize=16;fontColor=#FFFFFF;" parent="1" vertex="1">
                    <mxGeometry x="405" y="550" width="190" height="40" as="geometry"/>
                </mxCell>
                <mxCell id="17" value="&lt;span style=&quot;color: rgb(0 , 0 , 0)&quot;&gt;IP: 192.168.1.12&lt;/span&gt;&lt;br style=&quot;color: rgb(0 , 0 , 0)&quot;&gt;&lt;span style=&quot;color: rgb(0 , 0 , 0)&quot;&gt;MAC:&amp;nbsp;&lt;/span&gt;&lt;font color=&quot;#ff3333&quot;&gt;00:00:0000:01:12&lt;/font&gt;" style="text;html=1;resizable=0;autosize=1;align=center;verticalAlign=middle;points=[];fillColor=none;strokeColor=none;rounded=0;labelBackgroundColor=none;fontSize=16;fontColor=#FF3333;" parent="1" vertex="1">
                    <mxGeometry x="165" y="399" width="180" height="40" as="geometry"/>
                </mxCell>
                <mxCell id="18" value="&lt;span style=&quot;color: rgb(0 , 0 , 0)&quot;&gt;Container 1&lt;/span&gt;&lt;br style=&quot;color: rgb(0 , 0 , 0)&quot;&gt;" style="text;html=1;resizable=0;autosize=1;align=center;verticalAlign=middle;points=[];fillColor=none;strokeColor=none;rounded=0;labelBackgroundColor=none;fontSize=16;fontColor=#FF3333;" parent="1" vertex="1">
                    <mxGeometry x="270" y="250" width="100" height="20" as="geometry"/>
                </mxCell>
                <mxCell id="19" value="&lt;span style=&quot;color: rgb(0 , 0 , 0)&quot;&gt;IP: 192.168.1.13&lt;/span&gt;&lt;br style=&quot;color: rgb(0 , 0 , 0)&quot;&gt;&lt;span style=&quot;color: rgb(0 , 0 , 0)&quot;&gt;MAC:&amp;nbsp;&lt;/span&gt;00:00:0000:01:13" style="text;html=1;resizable=0;autosize=1;align=center;verticalAlign=middle;points=[];fillColor=none;strokeColor=none;rounded=0;labelBackgroundColor=none;fontSize=16;fontColor=#FF3333;" parent="1" vertex="1">
                    <mxGeometry x="348" y="420" width="180" height="40" as="geometry"/>
                </mxCell>
                <mxCell id="20" value="&lt;span style=&quot;color: rgb(0 , 0 , 0)&quot;&gt;Container 2&lt;/span&gt;" style="text;html=1;resizable=0;autosize=1;align=center;verticalAlign=middle;points=[];fillColor=none;strokeColor=none;rounded=0;labelBackgroundColor=none;fontSize=16;fontColor=#FF3333;" parent="1" vertex="1">
                    <mxGeometry x="450" y="250" width="100" height="20" as="geometry"/>
                </mxCell>
                <mxCell id="21" value="&lt;span style=&quot;color: rgb(0 , 0 , 0)&quot;&gt;IP: 192.168.1.14&lt;/span&gt;&lt;br style=&quot;color: rgb(0 , 0 , 0)&quot;&gt;&lt;span style=&quot;color: rgb(0 , 0 , 0)&quot;&gt;MAC:&amp;nbsp;&lt;/span&gt;00:00:0000:01:14" style="text;html=1;resizable=0;autosize=1;align=center;verticalAlign=middle;points=[];fillColor=none;strokeColor=none;rounded=0;labelBackgroundColor=none;fontSize=16;fontColor=#FF3333;" parent="1" vertex="1">
                    <mxGeometry x="538" y="439" width="180" height="40" as="geometry"/>
                </mxCell>
                <mxCell id="22" value="&lt;span style=&quot;color: rgb(0 , 0 , 0)&quot;&gt;Container 3&lt;/span&gt;" style="text;html=1;resizable=0;autosize=1;align=center;verticalAlign=middle;points=[];fillColor=none;strokeColor=none;rounded=0;labelBackgroundColor=none;fontSize=16;fontColor=#FF3333;" parent="1" vertex="1">
                    <mxGeometry x="640" y="250" width="100" height="20" as="geometry"/>
                </mxCell>
            </root>
        </mxGraphModel>
    </diagram>
</mxfile>